<svg version="1.2" xmlns="http://www.w3.org/2000/svg" viewBox="0 0 512 512" width="512" height="512">
	<title>Shopping Bag Filled-svg</title>
	<defs>
		<clipPath clipPathUnits="userSpaceOnUse" id="cp1">
			<path d="m200.48 78.29c14.93-14.05 34.92-21.74 55.52-21.74 20.6 0 40.6 7.69 55.53 21.74 14.97 14.08 23.64 33.47 23.64 53.97v44.25h-41.67v-44.25c0-8.6-3.62-17.13-10.52-23.63-6.95-6.53-16.63-10.41-26.98-10.41-10.34 0-20.02 3.88-26.97 10.41-6.9 6.5-10.53 15.03-10.53 23.63v44.25h-41.66v-44.25c0-20.5 8.67-39.89 23.64-53.97zm134.69 149.62c0 11.51-9.33 20.84-20.83 20.84-11.51 0-20.84-9.33-20.84-20.84v-51.4h-75v51.4c0 11.51-9.32 20.84-20.83 20.84-11.51 0-20.83-9.33-20.83-20.84v-51.4h-18.92c-28.42 0-52 21.95-54.03 50.29l-11.94 166.67c-2.25 31.36 22.59 58.04 54.03 58.04h220.05c31.44 0 56.27-26.68 54.03-58.04l-11.94-166.67c-2.03-28.34-25.62-50.29-54.03-50.29h-18.92z"/>
		</clipPath>
		<linearGradient id="g1" x2="1" gradientUnits="userSpaceOnUse" gradientTransform="matrix(230.94,-400,400,230.94,140.53,456)">
			<stop offset="0" stop-color="#18a53c"/>
			<stop offset="1" stop-color="#3abfa0"/>
		</linearGradient>
	</defs>
	<style>
		.s0 { fill: #ffffff } 
		.s1 { fill: url(#g1) } 
	</style>
	<path id="Layer 1" class="s0" d="m256 512c-141.6 0-256-114.4-256-256 0-141.6 114.4-256 256-256 141.6 0 256 114.4 256 256 0 141.6-114.4 256-256 256z"/>
	<g id="Clip-Path" clip-path="url(#cp1)">
		<g id="Layer">
			<path id="Layer" class="s1" d="m56 56h400v400h-400z"/>
		</g>
	</g>
</svg>