
<svg width="16" height="17" viewBox="0 0 16 17" fill="none" xmlns="http://www.w3.org/2000/svg">
<path d="M8 2.2121C8.49445 2.2121 8.9778 2.35872 9.38893 2.63342C9.80005 2.90813 10.1205 3.29857 10.3097 3.75539C10.4989 4.2122 10.5484 4.71487 10.452 5.19982C10.3555 5.68478 10.1174 6.13023 9.76777 6.47986C9.41814 6.82949 8.97268 7.0676 8.48773 7.16406C8.00278 7.26052 7.50011 7.21101 7.04329 7.0218C6.58648 6.83258 6.19603 6.51215 5.92133 6.10102C5.64662 5.6899 5.5 5.20655 5.5 4.7121C5.5 4.04906 5.76339 3.41317 6.23223 2.94433C6.70108 2.47549 7.33696 2.2121 8 2.2121ZM8 1.2121C7.30777 1.2121 6.63108 1.41737 6.05551 1.80195C5.47993 2.18654 5.03133 2.73316 4.76642 3.3727C4.50152 4.01225 4.4322 4.71598 4.56725 5.39491C4.7023 6.07385 5.03564 6.69749 5.52513 7.18697C6.01461 7.67645 6.63825 8.0098 7.31719 8.14485C7.99612 8.27989 8.69985 8.21058 9.33939 7.94567C9.97893 7.68077 10.5256 7.23216 10.9101 6.65659C11.2947 6.08102 11.5 5.40433 11.5 4.7121C11.5 3.78384 11.1313 2.8936 10.4749 2.23722C9.8185 1.58085 8.92826 1.2121 8 1.2121Z" fill="#101116"/>
<path d="M13 15.2121H12V12.7121C12 12.3838 11.9353 12.0587 11.8097 11.7554C11.6841 11.4521 11.4999 11.1765 11.2678 10.9443C11.0356 10.7122 10.76 10.528 10.4567 10.4024C10.1534 10.2768 9.8283 10.2121 9.5 10.2121H6.5C5.83696 10.2121 5.20107 10.4755 4.73223 10.9443C4.26339 11.4132 4 12.0491 4 12.7121V15.2121H3V12.7121C3 11.7838 3.36875 10.8936 4.02513 10.2372C4.6815 9.58085 5.57174 9.2121 6.5 9.2121H9.5C10.4283 9.2121 11.3185 9.58085 11.9749 10.2372C12.6313 10.8936 13 11.7838 13 12.7121V15.2121Z" fill="#101116"/>
</svg>
