<svg xmlns="http://www.w3.org/2000/svg" version="1.1" xmlns:xlink="http://www.w3.org/1999/xlink" width="512" height="512" x="0" y="0" viewBox="0 0 512 512" style="enable-background:new 0 0 512 512" xml:space="preserve"><g><path d="M498.909 298.927c-4.731-7.899-24.151-31.349-75.419-1.49l-90.435 52.673c-4.562 2.657-9.201 4.529-14.047 5.639 1.812-2.867 3.228-6.12 4.193-9.724 4.62-17.242-5.628-35.243-23.331-40.981a7.977 7.977 0 0 0-1.047-.263c-25.994-4.688-51.647-13.963-72.261-21.415-7.161-2.589-13.925-5.034-19.676-6.899-23.157-7.512-44.076 1.786-61.485 11.873l-67.29 38.985-4.876-8.616c-2.797-4.942-7.365-8.502-12.861-10.026-5.497-1.523-11.246-.821-16.188 1.975l-25.374 14.36c-10.228 5.789-13.84 18.82-8.052 29.049l74.599 131.81c2.797 4.942 7.365 8.503 12.861 10.026 1.901.527 3.832.788 5.749.788 3.627 0 7.205-.933 10.438-2.763l25.375-14.36c10.228-5.789 13.84-18.82 8.052-29.049l-9.195-16.246 15.367-8.872 115.838 31.039c6.54 1.753 12.958 2.628 19.239 2.628 12.522 0 24.494-3.479 35.76-10.415L488.96 347.598c14.95-9.205 19.692-32.403 9.949-48.671zM131.901 465.643l-25.375 14.361a5.274 5.274 0 0 1-4.032.481 5.27 5.27 0 0 1-3.21-2.489l-74.598-131.81c-1.419-2.508-.5-5.825 2.008-7.244l25.374-14.361a5.231 5.231 0 0 1 2.582-.68c.482 0 .97.066 1.451.2a5.274 5.274 0 0 1 3.21 2.488l74.599 131.81c1.418 2.509.498 5.825-2.009 7.244zm348.671-131.67L316.455 435.029c-13.021 8.016-27.309 10.021-42.469 5.957L154.947 409.09a8.006 8.006 0 0 0-6.071.799l-18.118 10.46-44.766-79.099 67.43-39.066c15.08-8.737 31.395-16.057 48.528-10.498 5.499 1.783 11.835 4.074 19.172 6.727 21.029 7.603 47.167 17.052 74.283 22.009 9.465 3.305 14.756 12.448 12.341 21.463-3.138 11.713-12.998 13.156-20.838 12.252-14.128-2.838-26.954-6.476-40.372-10.281-6.008-1.704-12.22-3.466-18.753-5.216a8 8 0 0 0-4.141 15.455c6.42 1.72 12.576 3.466 18.528 5.154 13.831 3.923 27.05 7.672 41.832 10.626l.097.02c3.692.736 7.482 1.423 11.403 2.051 16.814 2.691 31.731.07 45.605-8.009l90.436-52.673c26.045-15.17 46.099-16.708 53.64-4.116 5.198 8.68 2.872 22.218-4.611 26.825zM57.95 347.427a9.058 9.058 0 0 1-7.654 10.274 9.058 9.058 0 0 1-10.274-7.653 9.06 9.06 0 1 1 17.928-2.621zm161.807-132.601 106.572 61.53a8.002 8.002 0 0 0 8 0l106.573-61.53a8 8 0 0 0 4-6.928V84.838a8 8 0 0 0-4-6.928L334.329 16.38a8 8 0 0 0-8 0L219.757 77.91a8 8 0 0 0-4 6.928v123.059a8.003 8.003 0 0 0 4 6.929zm12-116.132L253.59 111.3v43.84a8 8 0 0 0 4 6.928l30.906 17.843a8.002 8.002 0 0 0 8 0 8 8 0 0 0 4-6.928v-34.602l21.833 12.605V255.57l-90.572-52.292zm98.572 38.436-21.833-12.605 90.572-52.292 21.833 12.605zm-60.739-16.593 14.906 8.606v29.983l-14.906-8.605zm22.906-5.25-14.906-8.606 90.572-52.292 14.906 8.606zm45.833 140.284V150.986l90.573-52.292v104.585zm-8-223.025 21.833 12.605-90.572 52.292-21.833-12.605z" fill="#000000" opacity="1" data-original="#000000"></path></g></svg>